<svg width="24" height="24" fill="none" xmlns="http://www.w3.org/2000/svg">
    <path d="m12 0 1.874 1.974L16.334.81l1.036 2.518 2.714-.196.056 2.721 2.602.798-.931 2.558 2.138 1.684-1.793 2.048 1.386 2.343-2.411 1.263.445 2.685-2.704.306-.555 2.665-2.632-.692-1.48 2.285L12 22.2l-2.205 1.596-1.48-2.285-2.632.692-.555-2.665-2.704-.306.445-2.685-2.41-1.263 1.385-2.343L.05 10.893 2.19 9.209 1.258 6.65l2.602-.798.056-2.721 2.714.196L7.665.81l2.46 1.164L12 0z" fill="#0F4089"/>
    <path d="M11.718 8.824c.14.046.287.046.422 0a.68.68 0 1 0-.422 0zM5.679 11.645a.668.668 0 0 0 .569-.308l.024-.038a.68.68 0 1 0-.593.346zM18.18 10.286a.68.68 0 1 0 .002 1.36.68.68 0 0 0-.002-1.36zM16.733 15.327H7.127V16.5h9.606v-1.173zM6.013 11.794l1.09 3.318h9.658l1.09-3.316a.881.881 0 0 1-.356-.26l-3.053 1.25-2.318-3.736a.859.859 0 0 1-.194.025.875.875 0 0 1-.195-.025l-2.317 3.724-3.044-1.247a.877.877 0 0 1-.361.267z" fill="#fff"/>
</svg>
