<?xml version="1.0" encoding="UTF-8"?>
<svg id="Layer_2" data-name="Layer 2" xmlns="http://www.w3.org/2000/svg" viewBox="0 0 377.75 79.8">
  <defs>
    <style>
      .cls-1 {
        fill: none;
        stroke: #1a1a1a;
        stroke-miterlimit: 10;
        stroke-width: 2px;
      }

      .cls-2, .cls-3, .cls-4 {
        stroke-width: 0px;
      }

      .cls-3 {
        fill: #4173d2;
      }

      .cls-4 {
        fill: #2039a8;
      }
    </style>
  </defs>
  <g id="Layer_1-2" data-name="Layer 1">
    <g>
      <path class="cls-4" d="m38.63,72.12l.21-.25,8.41-10.37h-11.19c-14.03,0-25.45-11.41-25.45-25.45s11.41-25.45,25.45-25.45h13.07L57.83,0h-21.77C16.18,0,0,16.18,0,36.06s16.18,36.06,36.06,36.06h2.57Z"/>
      <path class="cls-3" d="m0,36.06C0,45.23,3.45,53.61,9.11,59.98l6.81-8.39c-3.33-4.3-5.31-9.69-5.31-15.53,0-14.03,11.41-25.45,25.45-25.45h13.15L57.83,0h-21.77C16.18,0,0,16.18,0,36.06Z"/>
      <polygon class="cls-4" points="47.25 61.51 57.86 48.42 57.86 30.36 35.31 30.36 26.72 40.97 47.25 40.97 47.25 61.51"/>
      <g>
        <path class="cls-4" d="m165.41,49.56c0,1.58-1.01,2.93-2.52,3.38-2.14.64-4.85,1.9-5.63,4.29-.53,1.37-.8,2.96-.8,4.77v7.25c0,1.86-1.51,3.37-3.37,3.37s-3.37-1.51-3.37-3.37v-19.97c0-1.86,1.51-3.37,3.37-3.37s3.37,1.51,3.37,3.37v.84c1.01-1.7,2.31-2.96,3.88-3.75,1.07-.54,2.32-.49,3.36.15,1.07.66,1.71,1.79,1.71,3.04Zm-71.32,16.23h-13.15c-.72,0-1.31-.59-1.31-1.31v-23.67c0-1.73-1.41-3.13-3.13-3.13h-.53c-1.73,0-3.13,1.41-3.13,3.13v29.22c0,1.12.91,2.03,2.03,2.03h19.23c1.73,0,3.13-1.41,3.13-3.13s-1.41-3.13-3.13-3.13Zm27.87-6.38c0,1.16-.95,2.08-2.11,2.08h-16.45c.72,3.4,3.25,5.5,6.72,5.5,1.98,0,3.57-.53,5.15-1.7,1.05-.78,2.53-.71,3.51.16.62.55.96,1.34.94,2.17-.02.83-.4,1.6-1.04,2.12-2.38,1.93-5.3,2.9-8.66,2.9-7.77,0-13.41-5.7-13.41-13.56v-.54c0-3.52,1.43-6.97,3.93-9.45,2.42-2.41,5.6-3.73,8.95-3.71,8.61.05,12.47,7.08,12.47,14.04Zm-18.62-2.66h11.9c-.44-2.86-2.19-5.73-5.89-5.73-3.05,0-5.37,2.23-6.02,5.73Zm40.74-8.23c1.89,1.84,2.85,4.58,2.85,8.11v12.14c0,1.81-1.47,3.28-3.28,3.28-1.55,0-2.86-1.09-3.19-2.54-2.04,2.01-4.73,3.06-7.85,3.06-4.55,0-9.45-2.58-9.45-8.25v-.1c0-5.38,4.09-8.59,10.93-8.59,2.76,0,4.75.43,6.33.89h0c0-4.17-3.16-5.05-5.81-5.05-1.72,0-3.27.24-4.9.75-1.48.47-3.05-.33-3.57-1.81-.25-.73-.21-1.52.13-2.22.34-.69.92-1.21,1.64-1.46,2.39-.82,4.69-1.19,7.45-1.19,3.8,0,6.81,1.02,8.69,2.96Zm-8.84,11.72c-3.48,0-5.47,1.37-5.47,3.75v.1c0,2.05,1.75,3.37,4.47,3.37,3.64,0,6.29-2.08,6.29-4.95v-1.4c-1.16-.42-2.96-.86-5.28-.86Zm46.3-14.3c-3,0-5.45,1.16-7.45,3.53-.18-1.69-1.62-3.01-3.35-3.01-1.86,0-3.37,1.51-3.37,3.37v19.41c0,1.86,1.51,3.37,3.37,3.37s3.37-1.51,3.37-3.37v-11.33c0-3.53,2.05-5.81,5.23-5.81s4.95,2.03,4.95,5.71v11.45c0,1.85,1.5,3.35,3.35,3.35s3.35-1.5,3.35-3.35v-13.22c0-6.24-3.62-10.11-9.44-10.11Zm15.72.53c-1.86,0-3.37,1.51-3.37,3.37v19.41c0,1.86,1.51,3.37,3.37,3.37s3.37-1.51,3.37-3.37v-19.41c0-1.86-1.51-3.37-3.37-3.37Zm.35-8.3h-.7c-1.72,0-3.11,1.4-3.11,3.11s1.4,3.11,3.11,3.11h.7c1.72,0,3.11-1.4,3.11-3.11s-1.4-3.11-3.11-3.11Zm20.07,7.78c-3,0-5.45,1.16-7.45,3.53-.18-1.69-1.62-3.01-3.35-3.01-1.86,0-3.37,1.51-3.37,3.37v19.41c0,1.86,1.51,3.37,3.37,3.37s3.37-1.51,3.37-3.37v-11.33c0-3.53,2.05-5.81,5.23-5.81s4.95,2.03,4.95,5.71v11.45c0,1.85,1.5,3.35,3.35,3.35s3.35-1.5,3.35-3.35v-13.22c0-6.24-3.62-10.11-9.44-10.11Zm38.78,3.3v17.19c0,4.31-1.12,7.62-3.34,9.84-2.34,2.34-5.94,3.53-10.7,3.53-3.3,0-6.41-.64-9.25-1.9-.71-.32-1.25-.9-1.52-1.63-.27-.73-.22-1.56.13-2.26.69-1.4,2.36-1.98,3.77-1.33,2.14.99,4.34,1.47,6.73,1.47,4.93,0,7.53-2.5,7.53-7.24v-.67c-2.36,2.59-5.07,3.8-8.44,3.8-7.75,0-11.93-6.32-11.93-12.27v-.1c0-8,6.15-12.31,11.93-12.31,4.16,0,6.74,1.85,8.4,3.58.15-1.71,1.59-3.05,3.34-3.05,1.85,0,3.35,1.5,3.35,3.35Zm-13.56,1.96c-3.95,0-6.72,2.64-6.72,6.43v.1c0,3.75,2.82,6.48,6.72,6.48s6.95-2.78,6.95-6.48v-.1c0-3.66-2.99-6.43-6.95-6.43Z"/>
        <path class="cls-3" d="m105.07,18.74v9.42c0,1.26-.59,2.45-1.58,3.17-2.64,1.92-7,4.2-12.83,4.2-10.49,0-17.81-7.27-17.81-17.67v-.1C72.84,7.8,80.62,0,90.55,0,94.86,0,98.14.85,101.17,2.77c.78.49,1.31,1.3,1.45,2.21.14.9-.11,1.81-.7,2.51l-.25.3c-1.02,1.22-2.82,1.47-4.19.58-2.14-1.39-4.35-2-7.17-2-5.83,0-10.4,4.97-10.4,11.31v.1c0,6.77,4.49,11.5,10.92,11.5,2.05,0,4.06-.44,5.83-1.27,1.09-.51,1.79-1.67,1.79-2.94v-3.63h-5.52c-1.68,0-3.04-1.36-3.04-3.04h0c0-1.68,1.36-3.04,3.04-3.04h8.73c1.87,0,3.39,1.52,3.39,3.39Zm16.61-9.32c-1.04-.64-2.29-.69-3.36-.15-1.57.8-2.86,2.05-3.88,3.75v-.84c0-1.86-1.51-3.37-3.37-3.37s-3.37,1.51-3.37,3.37v19.97c0,1.86,1.51,3.37,3.37,3.37s3.37-1.51,3.37-3.37v-7.25c0-1.81.27-3.41.8-4.77.78-2.39,3.49-3.65,5.63-4.29,1.51-.45,2.52-1.81,2.52-3.38,0-1.25-.64-2.38-1.71-3.04Zm26.87,12.88c0,1.15-.95,2.08-2.11,2.08h-16.45c.72,3.4,3.25,5.5,6.72,5.5,1.98,0,3.57-.53,5.15-1.7,1.05-.78,2.53-.71,3.51.16.62.55.96,1.34.94,2.17-.02.83-.4,1.6-1.04,2.12-2.38,1.93-5.3,2.9-8.66,2.9-7.77,0-13.41-5.7-13.41-13.56v-.54c0-3.53,1.43-6.97,3.93-9.45,2.4-2.39,5.56-3.7,8.88-3.7h.07c8.61.05,12.47,7.08,12.47,14.04Zm-12.6-8.39c-3.05,0-5.37,2.23-6.02,5.73h11.9c-.44-2.86-2.19-5.73-5.89-5.73Zm34.72-2.49c1.89,1.84,2.85,4.57,2.85,8.11v12c0,1.66-1.17,3.16-2.81,3.39-1.75.24-3.29-.91-3.66-2.5-2.04,2.01-4.73,3.06-7.85,3.06-4.55,0-9.45-2.58-9.45-8.25v-.1c0-5.38,4.09-8.58,10.93-8.58,2.76,0,4.75.43,6.33.89h0c0-4.17-3.16-5.05-5.81-5.05-1.72,0-3.27.24-4.9.75-1.48.47-3.05-.33-3.57-1.81-.3-.87-.18-1.81.35-2.59.37-.55.95-.92,1.57-1.13,2.33-.79,4.6-1.14,7.31-1.14,3.8,0,6.81,1.02,8.69,2.96Zm-8.84,11.72c-3.48,0-5.47,1.37-5.47,3.75v.1c0,2.05,1.75,3.37,4.47,3.37,3.64,0,6.29-2.08,6.29-4.95v-1.4c-1.16-.42-2.96-.87-5.28-.87Zm25.88,6.12c-.28.03-.56.05-.85.05-1.83,0-2.65-.83-2.65-2.7v-11.93h3.85c1.62,0,2.94-1.32,2.94-2.94s-1.32-2.94-2.94-2.94h-3.85v-3.58c0-1.85-1.5-3.35-3.35-3.35s-3.35,1.5-3.35,3.35v3.58h-.26c-1.62,0-2.94,1.32-2.94,2.94s1.32,2.94,2.94,2.94h.26v12.84c0,5.22,2.6,7.87,7.72,7.87,1.38,0,2.59-.18,3.71-.57,1.17-.4,1.96-1.5,1.96-2.72,0-.81-.35-1.58-.95-2.12-.61-.54-1.42-.81-2.24-.71Z"/>
      </g>
    </g>
    <line class="cls-1" x1="280.27" y1=".51" x2="280.27" y2="79.8"/>
    <g>
      <path class="cls-4" d="m329.96,29.08v-.15c0-15.6,9.68-27.82,23.98-27.82s23.82,12.06,23.82,27.66v.15c0,15.6-9.61,27.82-23.98,27.82s-23.82-12.06-23.82-27.66Zm35.66,0v-.15c0-9.76-4.76-17.14-11.83-17.14s-11.68,7.15-11.68,16.98v.15c0,9.84,4.69,17.14,11.83,17.14s11.68-7.22,11.68-16.98Z"/>
      <rect class="cls-4" x="309.42" y="1.39" width="11.59" height="55.07" rx="5.8" ry="5.8"/>
      <polygon class="cls-3" points="314.34 20.98 321.04 12.73 321.04 1.33 306.82 1.33 301.4 8.02 314.34 8.02 314.34 20.98"/>
    </g>
    <g>
      <path class="cls-2" d="m310.03,77.64h-2.15v-4.79l-4.82-7.36h2.52l3.4,5.38,3.43-5.38h2.45l-4.82,7.3v4.84Z"/>
      <path class="cls-2" d="m329.35,67.42h-6.87v3.12h6.09v1.93h-6.09v3.24h6.96v1.93h-9.07v-12.14h8.99v1.93Z"/>
      <path class="cls-2" d="m347.26,77.64h-2.26l-1.23-2.93h-5.74l-1.25,2.93h-2.19l5.34-12.23h1.98l5.34,12.23Zm-6.37-9.68l-2.08,4.86h4.18l-2.1-4.86Z"/>
      <path class="cls-2" d="m360.77,77.64l-2.99-4.23h-2.68v4.23h-2.12v-12.14h5.41c.69,0,1.32.09,1.88.27s1.03.43,1.42.76c.39.33.69.73.89,1.21s.31,1.01.31,1.6c0,.51-.07.96-.22,1.36-.14.4-.34.75-.6,1.06-.25.31-.56.57-.91.78-.35.21-.74.38-1.17.49l3.28,4.6h-2.52Zm-.7-9.7c-.44-.34-1.06-.51-1.86-.51h-3.11v4.09h3.13c.77,0,1.37-.19,1.83-.56.45-.37.68-.87.68-1.5,0-.67-.22-1.18-.66-1.52Z"/>
      <path class="cls-2" d="m371.08,69.29c.08.17.23.34.44.49.21.15.51.29.89.42.38.13.86.26,1.44.4.64.16,1.2.34,1.7.54.49.2.9.44,1.23.72.32.28.57.61.74.99.17.38.25.82.25,1.33,0,.58-.11,1.09-.32,1.54-.21.45-.51.83-.89,1.14s-.83.55-1.36.71c-.53.16-1.11.24-1.75.24-.94,0-1.83-.16-2.69-.48-.86-.32-1.65-.81-2.38-1.47l1.28-1.53c.59.51,1.19.9,1.79,1.17.6.27,1.28.41,2.05.41.66,0,1.18-.14,1.57-.42.39-.28.58-.65.58-1.13,0-.22-.04-.42-.11-.59-.08-.17-.21-.33-.42-.48-.2-.14-.48-.28-.83-.41-.35-.13-.81-.26-1.38-.4-.65-.15-1.23-.32-1.73-.5-.5-.18-.93-.42-1.27-.69-.34-.28-.6-.61-.78-1.01-.18-.39-.27-.87-.27-1.44,0-.53.1-1.01.31-1.45s.49-.81.85-1.12c.36-.31.8-.55,1.3-.72.51-.17,1.06-.25,1.66-.25.89,0,1.69.13,2.4.39.71.26,1.38.64,2,1.14l-1.14,1.61c-.56-.4-1.1-.71-1.65-.93-.54-.21-1.09-.32-1.65-.32-.62,0-1.11.14-1.46.43-.35.28-.52.63-.52,1.03,0,.24.04.45.12.62Z"/>
    </g>
  </g>
</svg>