<svg width="150" height="152" viewBox="0 0 150 152" fill="none" xmlns="http://www.w3.org/2000/svg">
<path fill-rule="evenodd" clip-rule="evenodd" d="M15 75.5215C15 42.5853 41.7307 15.8545 74.6668 15.8545C107.603 15.8545 134.334 42.5853 134.334 75.5215C134.334 78.7625 134.075 81.9435 133.577 85.0448C130.271 82.3019 126.454 80.1544 122.29 78.7667C122.363 77.694 122.4 76.6119 122.4 75.5215C122.4 55.533 109.99 38.3489 92.5072 31.3082V33.7546C92.5072 40.318 87.1372 45.688 80.5739 45.688H68.6405V57.6214C68.6405 60.9031 65.9555 63.5881 62.6738 63.5881H50.7404V75.5215H86.5405C89.8222 75.5215 92.5072 78.2065 92.5072 81.4882V82.3625C82.6613 88.5733 76.1207 99.5471 76.1207 112.049C76.1207 120.557 79.1505 128.358 84.1901 134.431C81.0888 134.93 77.9079 135.188 74.6668 135.188C41.7307 135.188 15 108.458 15 75.5215ZM28.1864 64.9008C27.4107 68.3018 26.9334 71.8818 26.9334 75.5215C26.9334 99.8059 45.1914 119.854 68.6405 122.837V111.322C62.0771 111.322 56.7071 105.952 56.7071 99.3883V93.4216L28.1864 64.9008Z" fill="black"/>
<path fill-rule="evenodd" clip-rule="evenodd" d="M111.012 136.218C124.26 136.218 135 125.478 135 112.23C135 98.982 124.26 88.2422 111.012 88.2422C97.764 88.2422 87.0242 98.982 87.0242 112.23C87.0242 125.478 97.764 136.218 111.012 136.218ZM100.412 120.075V114.017L111.012 119.802L121.613 114.017V120.075L111.012 125.86L100.412 120.075ZM94.3541 107.687L111.012 98.6008L127.671 107.687V119.802H124.642V109.338L111.012 116.774L94.3541 107.687Z" fill="black"/>
</svg>
